# Blender 3.3.1
# www.blender.org
mtllib untitled.mtl
o Cube
v 3.339632 -9.000000 16.000000
v 3.339632 9.000000 16.000000
v 3.339632 -9.000000 -16.000000
v 3.339632 9.000000 -16.000000
v -3.339632 -7.475082 13.289036
v -3.339632 7.475082 13.289036
v -3.339632 -7.475082 -13.289036
v -3.339632 7.475082 -13.289036
v -3.339632 9.000000 -16.000000
v -3.339632 -9.000000 -16.000000
v -3.339632 -9.000000 16.000000
v -3.339632 9.000000 16.000000
v -3.339632 9.000000 -16.000000
v -3.339632 -9.000000 -16.000000
v -3.339632 -9.000000 16.000000
v -3.339632 9.000000 16.000000
v -3.339632 9.000000 -16.000000
v -3.339632 -9.000000 -16.000000
v -3.339632 -9.000000 16.000000
v -3.339632 9.000000 16.000000
v -0.004301 7.475082 -13.289036
v -0.004301 -7.475082 -13.289036
v -0.004301 -7.475082 13.289036
v -0.004301 7.475082 13.289036
v -1.595922 7.475082 -13.289036
v -1.595922 -7.475082 -13.289036
v -1.595922 -7.475082 13.289036
v -1.595922 7.475082 13.289036
vn 1.0000 -0.0000 -0.0000
vn -0.0000 -0.0000 -1.0000
vn -0.0000 -1.0000 -0.0000
vn -0.0000 -0.0000 1.0000
vn -0.0000 1.0000 -0.0000
vn -1.0000 -0.0000 -0.0000
vt 0.000000 0.000000
vt -0.277669 0.000000
vt 0.000000 1.000000
vt -0.277669 1.000000
vt -0.277669 0.000000
vt 1.000000 0.000000
vt -0.277669 0.000000
vt -0.277669 1.000000
vt 1.000000 1.000000
vt -0.277669 1.000000
vt 0.084718 0.084718
vt 0.722331 0.084718
vt 0.722331 0.084718
vt 0.084718 0.915282
vt 0.722331 0.915282
vt 0.915282 0.084718
vt 0.722331 0.084718
vt 0.722331 0.915282
vt 0.915282 0.915282
vt 0.722331 0.915282
vt 0.722331 1.000000
vt 0.722331 0.000000
vt 0.722331 1.000000
vt 0.722331 0.000000
vt 0.722331 1.000000
vt 0.722331 0.000000
vt 0.722331 1.000000
vt 0.722331 1.000000
vt 0.722331 0.000000
vt 0.722331 0.000000
vt 0.722331 1.000000
vt 1.000000 1.000000
vt 0.722331 1.000000
vt 1.000000 0.000000
vt 0.722331 0.000000
vt 0.000000 0.000000
vt 0.722331 0.000000
vt 0.000000 1.000000
vt 0.222975 0.915282
vt 0.222975 0.915282
vt 0.222975 0.084718
vt 0.222975 0.084718
vt 0.222975 0.915282
vt 0.222975 0.084718
vt 0.915282 0.915282
vt 0.461268 0.915282
vt 0.915282 0.084718
vt 0.461268 0.915282
vt 0.461268 0.084718
vt 0.084718 0.084718
vt 0.461268 0.084718
vt 0.461268 0.915282
vt 0.084718 0.915282
vt 0.461268 0.084718
s 0
usemtl Material.001
f 1/1/1 3/6/1 4/9/1 2/3/1
f 3/7/2 10/22/2 9/21/2 4/10/2
f 8/20/3 21/39/3 24/44/3 6/13/3
f 11/24/4 1/2/4 2/4/4 12/25/4
f 3/8/3 1/2/3 11/24/3 10/23/3
f 9/21/5 12/26/5 2/5/5 4/10/5
f 13/27/5 9/21/5 10/23/5 14/28/5
f 14/28/5 10/23/5 11/24/5 15/29/5
f 16/30/5 12/26/5 9/21/5 13/27/5
f 15/29/5 11/24/5 12/26/5 16/30/5
f 17/31/5 13/27/5 14/28/5 18/33/5
f 18/33/5 14/28/5 15/29/5 19/35/5
f 20/37/5 16/30/5 13/27/5 17/31/5
f 19/35/5 15/29/5 16/30/5 20/37/5
f 8/19/6 17/32/6 18/34/6 7/16/6
f 7/16/6 18/34/6 19/36/6 5/11/6
f 6/14/6 20/38/6 17/32/6 8/19/6
f 5/11/6 19/36/6 20/38/6 6/14/6
f 24/43/4 28/52/4 27/51/4 23/42/4
f 7/17/4 22/41/4 21/39/4 8/20/4
f 6/15/2 24/43/2 23/42/2 5/12/2
f 5/12/5 23/42/5 22/40/5 7/18/5
f 26/47/6 27/50/6 28/53/6 25/45/6
f 23/42/3 27/51/3 26/48/3 22/40/3
f 21/39/5 25/46/5 28/54/5 24/44/5
f 22/41/2 26/49/2 25/46/2 21/39/2
